<?xml version="1.0" encoding="UTF-8"?>
<svg xmlns="http://www.w3.org/2000/svg" viewBox="0 0 64 64" width="32" height="32" fill="none" stroke="currentColor" stroke-width="6" stroke-linecap="round" stroke-linejoin="round" role="img" aria-label="SecondBrain favicon">
  <g opacity="0.32" transform="translate(-6 -4)"><path d="M20 14 C27 13, 37 13, 44 14 C50 18, 53 26, 54 32 C53 38, 50 46, 44 50 C37 51, 27 51, 20 50 C14 46, 11 38, 10 32 C11 26, 14 18, 20 14 Z"></path></g>
    <path d="M20 14 C27 13, 37 13, 44 14 C50 18, 53 26, 54 32 C53 38, 50 46, 44 50 C37 51, 27 51, 20 50 C14 46, 11 38, 10 32 C11 26, 14 18, 20 14 Z"></path>
    <line x1="32" y1="14" x2="32" y2="50"></line>
</svg>